<?xml version="1.0" encoding="UTF-8" standalone="no"?>
<svg
   xmlns:dc="http://purl.org/dc/elements/1.1/"
   xmlns:cc="http://creativecommons.org/ns#"
   xmlns:rdf="http://www.w3.org/1999/02/22-rdf-syntax-ns#"
   xmlns:svg="http://www.w3.org/2000/svg"
   xmlns="http://www.w3.org/2000/svg"
   xmlns:sodipodi="http://sodipodi.sourceforge.net/DTD/sodipodi-0.dtd"
   xmlns:inkscape="http://www.inkscape.org/namespaces/inkscape"
   version="1.0"
   width="256px"
   height="300px"
   viewBox="0 0 2560 3000"
   preserveAspectRatio="xMidYMid meet"
   id="svg2"
   inkscape:version="0.91 r13725"
   sodipodi:docname="logo-bg.svg">
  <metadata
     id="metadata98">
    <rdf:RDF>
      <cc:Work
         rdf:about="">
        <dc:format>image/svg+xml</dc:format>
        <dc:type
           rdf:resource="http://purl.org/dc/dcmitype/StillImage" />
      </cc:Work>
    </rdf:RDF>
  </metadata>
  <defs
     id="defs96" />
  <sodipodi:namedview
     pagecolor="#ffffff"
     bordercolor="#666666"
     borderopacity="1"
     objecttolerance="10"
     gridtolerance="10"
     guidetolerance="10"
     inkscape:pageopacity="0"
     inkscape:pageshadow="2"
     inkscape:window-width="2022"
     inkscape:window-height="1428"
     id="namedview94"
     showgrid="false"
     inkscape:zoom="1.5733333"
     inkscape:cx="75.490388"
     inkscape:cy="121.20799"
     inkscape:window-x="373"
     inkscape:window-y="267"
     inkscape:window-maximized="0"
     inkscape:current-layer="svg2" />
  <g
     id="layer1"
     fill="#ce1515"
     stroke="none">
    <path
       d="M1160 2960 c-129 -18 -187 -31 -227 -50 -23 -11 -49 -20 -58 -20 -10 0 -29 -9 -44 -19 -29 -21 -134 -71 -149 -71 -4 0 -49 -41 -98 -91 -49 -49 -106 -99 -126 -109 -20 -11 -45 -31 -55 -45 -10 -13 -37 -46 -61 -72 -38 -43 -132 -213 -132 -240 0 -6 -8 -21 -18 -34 -23 -31 -59 -122 -71 -179 -18 -81 -41 -175 -51 -200 -8 -20 -22 -247 -21 -335 1 -107 36 -378 60 -465 20 -74 70 -208 96 -260 62 -125 196 -330 214 -330 4 0 52 -45 106 -100 55 -56 116 -109 135 -119 19 -10 64 -36 100 -58 69 -42 150 -75 240 -100 89 -24 310 -43 382 -33 122 18 240 41 258 50 9 5 20 7 23 3 4 -3 12 -1 19 4 7 6 24 14 37 18 98 30 370 246 407 323 8 18 31 43 49 53 35 21 70 63 95 114 8 17 31 53 52 80 20 28 40 62 43 78 4 15 11 30 16 33 5 3 9 14 9 26 0 11 11 41 23 67 34 66 80 209 84 261 2 25 10 64 19 87 23 63 24 440 1 589 -9 61 -21 124 -27 138 -5 15 -10 39 -10 53 0 14 -6 39 -14 56 -8 18 -22 58 -31 90 -17 61 -71 172 -121 248 -16 25 -33 52 -39 60 -38 61 -131 160 -225 240 -96 81 -122 98 -205 130 -53 20 -101 41 -108 47 -19 14 -163 59 -247 77 -78 16 -232 18 -330 5z m193 -175 c16 -12 4 -13 -95 -13 -91 1 -125 -3 -175 -20 -34 -12 -72 -22 -83 -22 -12 0 -66 -22 -122 -50 -55 -27 -105 -50 -110 -50 -6 0 -23 -9 -40 -21 -16 -12 -31 -19 -33 -17 -7 7 47 44 75 53 14 4 38 18 53 31 42 36 112 63 217 86 178 39 283 47 313 23z m-503 -23 c0 -4 -14 -13 -30 -19 -34 -13 -31 3 4 17 27 11 26 11 26 2z m-110 -67 c-7 -8 -18 -15 -24 -15 -6 0 -2 7 8 15 25 19 32 19 16 0z m617 -17 c7 -6 27 -8 45 -5 59 9 221 -31 280 -69 20 -13 59 -43 87 -68 27 -24 58 -47 69 -50 23 -8 232 -210 232 -225 0 -5 18 -31 40 -56 30 -34 40 -55 40 -80 0 -19 11 -59 24 -88 13 -30 26 -81 30 -113 8 -79 19 -121 44 -171 20 -38 23 -69 21 -183 0 -14 0 -68 0 -120 1 -106 -7 -178 -20 -186 -5 -3 -9 -23 -9 -44 0 -56 -27 -151 -67 -238 -117 -255 -159 -320 -258 -409 -37 -32 -72 -60 -79 -63 -17 -7 -85 -58 -121 -91 -48 -44 -264 -109 -360 -109 -50 1 -187 20 -280 39 -74 16 -243 105 -319 168 -36 30 -66 59 -66 63 0 5 -19 30 -42 54 -95 100 -185 246 -223 361 -49 148 -66 214 -71 268 -3 34 -9 80 -13 102 -6 35 -6 155 2 400 2 39 6 79 10 90 38 95 47 123 47 141 0 12 9 32 19 46 11 13 24 44 31 68 7 25 20 56 30 70 9 14 23 42 31 63 7 20 16 37 20 37 6 0 28 31 65 91 6 10 39 43 75 74 35 30 75 66 89 79 47 42 105 75 153 86 26 5 64 19 85 30 25 14 56 20 97 20 34 0 66 5 73 12 26 26 160 30 189 6z m-667 -13 c-7 -8 -18 -15 -24 -15 -22 -1 -206 -190 -253 -261 -14 -21 -30 -39 -36 -39 -5 0 2 15 17 33 14 17 37 48 50 67 39 57 147 165 200 199 56 35 64 38 46 16z m1256 -136 c19 -22 19 -22 -3 -8 -13 8 -23 17 -23 21 0 12 6 9 26 -13z m-1338 -26 c-20 -21 -39 -48 -43 -60 -10 -34 -129 -150 -133 -130 -5 26 64 110 153 184 62 53 70 54 23 6z m1702 -317 c0 -5 -7 -1 -15 10 -8 10 -14 24 -14 29 0 6 6 1 14 -9 8 -11 15 -24 15 -30z m-2024 -10 c-9 -19 -16 -40 -16 -47 0 -7 -3 -9 -6 -6 -4 4 1 27 11 52 9 26 19 44 22 41 3 -3 -2 -21 -11 -40z m1933 35 c8 -5 21 -29 28 -53 12 -43 12 -43 -6 -19 -49 65 -58 95 -22 72z m-1898 -128 c-8 -15 -10 -15 -11 -2 0 17 10 32 18 25 2 -3 -1 -13 -7 -23z m-95 -79 c-7 -27 -18 -59 -23 -69 -6 -11 -14 -39 -18 -63 -4 -24 -9 -41 -12 -39 -8 8 14 109 37 170 26 70 34 70 16 1z m70 -24 c-9 -27 -16 -56 -16 -64 0 -8 -5 -18 -10 -21 -12 -7 -8 14 18 109 10 32 19 51 20 41 2 -9 -3 -38 -12 -65z m2149 -245 c6 -48 -11 -36 -18 12 -3 21 -8 49 -12 63 -4 19 -1 17 10 -8 8 -18 17 -48 20 -67z m-2298 -157 c-2 -18 -4 -6 -4 27 0 33 2 48 4 33 2 -15 2 -42 0 -60z m80 -15 c-3 -10 -5 -2 -5 17 0 19 2 27 5 18 2 -10 2 -26 0 -35z m2229 -38 c1 -25 0 -45 -3 -45 -9 0 -23 54 -18 71 11 32 20 21 21 -26z m-2219 -152 c-2 -16 -4 -3 -4 27 0 30 2 43 4 28 2 -16 2 -40 0 -55z m2206 -117 c6 -38 -14 -105 -43 -146 -11 -15 -26 -56 -33 -91 -18 -80 -32 -118 -69 -194 -17 -33 -37 -81 -45 -108 -20 -69 -162 -251 -247 -317 -30 -23 29 63 101 149 35 41 63 79 63 85 1 6 14 27 30 46 17 19 30 38 30 42 0 4 11 24 25 44 13 20 27 52 31 73 4 20 12 47 20 61 16 33 54 146 54 162 0 7 7 27 16 43 19 37 45 135 39 145 -6 10 5 40 15 40 4 0 10 -15 13 -34z m-138 -137 c-2 -33 -6 -63 -9 -67 -3 -3 -6 -13 -6 -22 0 -16 -12 -46 -71 -177 -10 -24 -19 -45 -19 -48 0 -7 -71 -114 -102 -156 -16 -20 -28 -41 -28 -47 0 -6 -8 -16 -18 -21 -10 -5 -24 -20 -31 -34 -14 -26 -71 -65 -71 -48 0 6 18 28 40 50 22 21 40 43 40 49 0 6 21 34 48 64 60 68 62 71 128 205 50 102 66 151 80 238 16 94 25 101 19 14z m-1924 -284 c8 -16 6 -15 -10 4 -12 13 -21 28 -21 35 0 12 14 -5 31 -39z"
       id="path5" />
    <path
       d="M1235 2593 c-146 -6 -185 -14 -201 -38 -12 -18 -13 -28 -4 -44 9 -18 20 -21 71 -21 l61 0 -8 -157 c-5 -87 -8 -196 -7 -243 11 -438 7 -749 -9 -766 -11 -11 -231 -7 -309 5 -121 20 -229 74 -244 122 -4 12 -17 36 -30 55 -12 18 -28 61 -33 94 -14 78 -32 115 -57 115 -38 0 -44 -37 -39 -234 3 -102 7 -196 9 -208 10 -43 23 -45 455 -53 58 -1 96 -4 85 -7 -11 -3 -33 -17 -50 -32 -52 -46 -94 -71 -100 -61 -9 15 -41 12 -55 -5 -22 -26 6 -48 54 -41 23 2 50 1 61 -4 35 -14 -5 -22 -86 -16 -145 10 -201 -14 -165 -69 21 -32 143 -69 201 -62 l40 6 -31 -27 c-37 -31 -49 -71 -31 -96 21 -29 50 -15 77 36 25 45 26 46 39 26 11 -18 9 -24 -12 -47 -14 -14 -32 -40 -41 -58 -11 -21 -38 -44 -81 -68 -71 -40 -81 -62 -40 -89 30 -20 72 -20 105 -1 41 23 51 19 38 -15 -8 -24 -7 -35 6 -55 9 -14 25 -25 35 -25 19 0 77 39 127 86 l32 30 26 -23 c14 -12 26 -28 26 -36 0 -19 18 -33 52 -41 20 -4 34 0 57 20 39 32 94 116 112 169 l14 40 5 -45 c5 -42 3 -47 -30 -76 -27 -24 -40 -48 -54 -95 -10 -35 -22 -77 -27 -93 -12 -37 -13 -33 16 -52 25 -16 27 -16 50 6 13 12 32 44 41 71 10 27 21 49 25 49 4 0 10 -19 14 -42 12 -70 37 -86 76 -47 14 14 19 28 15 44 -4 17 -1 24 14 28 30 8 35 49 11 101 l-20 46 27 -6 c38 -9 41 -12 57 -50 17 -41 37 -43 72 -8 19 19 24 32 20 53 -3 16 -2 32 3 37 4 5 10 18 12 29 3 15 11 7 36 -37 25 -43 39 -58 56 -58 52 0 60 45 16 100 -16 21 -30 42 -30 48 0 16 -78 74 -90 67 -5 -3 -10 -16 -10 -27 0 -20 -1 -20 -18 -5 -10 10 -23 17 -29 17 -6 0 -38 30 -72 66 -33 36 -67 64 -73 61 -16 -5 -12 -55 8 -84 8 -12 14 -28 14 -34 0 -7 7 -21 17 -31 9 -10 14 -21 11 -23 -8 -9 -66 43 -73 64 -7 22 -63 34 -85 18 -8 -6 -5 0 8 14 35 40 30 102 -14 167 -27 40 -40 52 -53 47 -13 -4 -20 1 -24 15 -8 29 -45 26 -59 -5 -10 -23 -13 -24 -21 -9 -7 13 -7 19 2 22 6 2 16 13 22 24 9 16 7 24 -9 41 -11 12 -23 32 -27 45 -6 22 -5 22 85 22 80 0 91 -2 86 -16 -3 -9 -6 -20 -6 -25 0 -5 -9 0 -20 11 -24 24 -72 26 -91 4 -11 -13 -11 -20 2 -42 18 -32 118 -111 142 -112 21 0 22 30 2 70 -11 21 -12 28 -3 25 7 -3 26 -39 41 -80 19 -52 37 -82 58 -97 16 -12 29 -28 29 -36 0 -10 8 -12 33 -7 17 4 35 9 40 12 11 6 -2 50 -35 115 -15 31 -28 59 -28 62 0 2 38 -15 85 -40 47 -25 91 -42 97 -38 16 10 3 94 -18 115 -11 10 -43 31 -72 47 l-53 29 208 -3 c202 -3 325 7 349 27 11 9 19 134 27 414 2 78 2 80 -26 93 -42 20 -71 -3 -87 -70 -7 -29 -15 -57 -19 -63 -3 -5 -4 -39 -3 -75 2 -61 0 -67 -31 -102 -38 -42 -125 -84 -217 -104 -85 -18 -339 -19 -342 -1 -1 6 -3 147 -4 312 0 165 -3 379 -4 475 -2 96 -3 219 -2 272 l2 97 60 -1 c34 0 66 4 75 12 21 17 19 67 -2 79 -16 8 -184 10 -338 4z m260 -1373 c-3 -5 -15 -10 -25 -10 -10 0 -22 5 -25 10 -4 6 7 10 25 10 18 0 29 -4 25 -10z m-315 -116 c0 -3 -5 -15 -11 -26 -9 -17 -13 -18 -20 -7 -15 23 -10 39 11 39 11 0 20 -3 20 -6z m-213 -151 c-8 -9 -20 -12 -26 -8 -8 4 -4 13 11 25 26 21 39 6 15 -17z m298 -160 c-4 -21 -13 -52 -22 -70 -8 -18 -12 -36 -9 -41 3 -5 -5 -14 -17 -19 -22 -10 -23 -9 -18 26 5 33 58 141 69 141 2 0 1 -17 -3 -37z m145 -195 c0 -12 -1 -19 -3 -17 -1 2 -9 12 -16 22 -12 14 -11 17 3 17 10 0 16 -8 16 -22z"
       id="path7" />
    <path
       d="M815 2251 c-16 -16 -156 -24 -182 -10 -29 15 -51 6 -64 -28 -6 -15 -18 -42 -26 -60 -14 -29 -14 -34 3 -64 30 -50 51 -59 75 -30 10 13 19 36 19 51 0 34 18 43 90 45 49 1 59 -2 98 -34 41 -34 43 -38 40 -84 l-3 -48 -75 -41 c-113 -61 -115 -62 -168 -144 -44 -65 -50 -81 -45 -112 7 -47 34 -86 105 -151 83 -75 191 -111 270 -89 28 8 45 8 68 -2 46 -19 63 2 68 85 4 53 1 70 -13 85 -10 11 -24 20 -30 20 -15 0 -45 -43 -45 -64 0 -26 -38 -39 -98 -31 -60 7 -82 26 -113 95 -15 33 -14 37 4 66 20 30 73 61 167 99 65 27 85 49 115 123 23 56 25 75 20 124 -6 49 -14 67 -49 108 -26 32 -59 57 -91 71 -59 26 -126 35 -140 20z"
       id="path9" />
    <path
       d="M1934 2239 c-46 -13 -60 -34 -47 -70 9 -23 7 -42 -11 -98 -25 -79 -43 -103 -101 -136 -45 -26 -103 -24 -112 4 -3 9 -17 40 -29 69 -13 29 -24 58 -24 65 0 7 -7 22 -15 33 -20 26 -19 34 5 34 31 0 45 36 25 66 -13 20 -23 24 -63 23 -62 -1 -93 -11 -106 -32 -9 -15 -6 -23 17 -42 15 -13 27 -29 27 -34 0 -6 9 -37 19 -68 11 -32 33 -105 51 -163 17 -58 38 -117 46 -132 8 -14 14 -33 14 -42 0 -9 4 -24 9 -34 27 -49 60 -131 66 -162 13 -63 32 -90 66 -90 36 0 76 36 84 77 11 50 47 147 67 180 10 18 23 45 28 60 29 96 104 291 129 338 17 31 31 64 31 73 0 25 -28 62 -48 62 -9 0 -30 7 -46 15 -32 17 -38 17 -82 4z m-170 -422 c16 -12 17 -18 7 -50 -17 -51 -26 -53 -45 -7 -24 60 -5 88 38 57z"
       id="path11" />
    <path
       d="M1772 1068 c-18 -18 -15 -53 9 -92 16 -27 28 -36 48 -36 58 0 68 50 20 105 -32 36 -56 44 -77 23z"
       id="path13" />
    <path
       d="M1614 916 c-7 -19 12 -46 33 -46 21 0 13 54 -10 58 -9 2 -20 -4 -23 -12z"
       id="path15" />
    <path
       d="M1696 917 c-29 -21 -12 -52 52 -92 65 -40 73 -42 95 -17 25 27 21 44 -15 80 -39 37 -102 51 -132 29z"
       id="path17" />
  </g>
  <g
     id="layer2"
     stroke="none"
     fill="#fcf4f3">
    <path
       d="M0 1500 l0 -1500 1280 0 1280 0 0 1500 0 1500 -1280 0 -1280 0 0 -1500z m1515 1429 c55 -11 114 -27 132 -35 17 -8 35 -14 40 -14 4 0 26 -10 48 -21 22 -12 69 -33 104 -46 87 -33 136 -63 197 -121 28 -27 60 -55 72 -61 12 -6 46 -42 75 -79 120 -150 214 -316 238 -417 7 -27 16 -55 20 -60 8 -11 36 -140 60 -275 20 -113 16 -522 -5 -572 -9 -21 -16 -54 -16 -75 0 -42 -51 -204 -87 -274 -12 -26 -23 -54 -23 -63 0 -9 -4 -24 -10 -34 -5 -9 -16 -33 -25 -53 -9 -21 -29 -50 -45 -65 -16 -16 -30 -36 -30 -44 -2 -29 -37 -76 -91 -119 -30 -25 -54 -49 -54 -55 -1 -38 -175 -197 -293 -267 -46 -27 -86 -49 -89 -49 -3 0 -19 -6 -36 -14 -58 -26 -275 -66 -376 -70 -188 -7 -416 49 -561 137 -36 22 -77 46 -93 54 -15 8 -71 57 -125 110 -53 52 -104 100 -112 107 -37 27 -141 188 -205 316 -56 112 -122 332 -126 420 0 8 -7 56 -14 105 -12 80 -14 109 -16 198 -1 82 13 316 21 337 10 25 33 119 51 200 12 57 48 148 71 179 10 13 18 28 18 34 0 27 92 196 124 227 20 19 43 47 51 62 9 15 32 37 53 47 20 11 77 60 127 110 49 50 93 91 98 91 14 0 120 50 148 71 15 10 34 19 44 19 9 0 35 9 58 20 64 31 228 56 382 59 68 1 133 -6 200 -20z"
       id="path20"
       style="fill:none" />
    <path
       d="M1118 2854 c-88 -27 -45 -46 52 -23 25 6 57 11 73 11 15 1 27 6 27 13 0 17 -95 17 -152 -1z"
       id="path22" />
    <path
       d="M1310 2845 c0 -8 5 -15 10 -15 6 0 10 7 10 15 0 8 -4 15 -10 15 -5 0 -10 -7 -10 -15z"
       id="path24" />
    <path
       d="M967 2813 c-12 -11 -8 -23 8 -23 8 0 15 7 15 15 0 16 -12 20 -23 8z"
       id="path26" />
    <path
       d="M1185 2810 c-169 -24 -307 -67 -363 -115 -15 -13 -40 -27 -55 -30 -14 -4 -59 -37 -99 -73 -40 -37 -95 -85 -122 -107 -54 -44 -119 -126 -131 -165 -4 -14 -15 -34 -25 -45 -10 -11 -23 -31 -30 -45 -7 -14 -19 -29 -26 -33 -8 -4 -14 -19 -14 -33 0 -14 -6 -38 -14 -52 -26 -47 -59 -175 -62 -234 -1 -31 -4 -61 -8 -66 -9 -14 4 -42 19 -42 18 0 38 55 32 87 -3 15 -1 34 3 42 12 23 40 120 40 140 1 25 45 146 63 175 10 14 17 29 17 34 0 5 34 39 76 77 42 38 84 85 93 106 9 20 33 55 53 77 36 40 119 102 136 102 5 0 55 23 110 50 56 28 111 50 124 50 13 1 55 11 93 24 60 20 85 23 178 19 61 -2 158 -14 224 -28 122 -26 163 -30 163 -17 0 12 -43 35 -80 43 -19 4 -73 15 -120 24 -47 10 -94 23 -105 30 -22 14 -93 16 -170 5z"
       id="path28" />
    <path
       d="M895 2790 c-11 -5 -34 -9 -51 -9 -17 -1 -37 -8 -44 -16 -6 -8 -50 -36 -98 -62 -63 -35 -110 -72 -177 -139 -49 -51 -100 -107 -112 -125 -12 -19 -44 -65 -70 -104 -54 -79 -75 -122 -108 -215 -12 -36 -34 -95 -48 -131 -14 -37 -29 -95 -32 -130 -4 -35 -13 -102 -22 -149 -15 -86 -13 -306 3 -332 4 -7 6 -33 5 -59 -1 -25 5 -63 13 -84 9 -21 16 -56 16 -80 0 -41 58 -234 98 -325 34 -79 122 -205 122 -175 0 10 -62 144 -95 207 -46 85 -76 185 -100 327 -8 47 -18 109 -24 136 -5 28 -7 137 -4 243 3 154 8 205 24 254 10 33 19 67 19 74 0 7 6 28 14 46 8 18 26 71 41 118 15 47 34 101 42 120 40 96 67 150 75 150 4 0 25 24 47 53 21 30 54 69 71 88 103 108 147 152 165 160 35 17 64 35 82 52 18 16 129 69 171 82 12 3 22 13 22 21 0 16 -15 17 -45 4z"
       id="path30" />
    <path
       d="M1670 2784 c0 -13 35 -33 58 -34 24 0 28 10 10 28 -12 12 -68 17 -68 6z"
       id="path32" />
    <path
       d="M1780 2746 c0 -14 36 -46 52 -46 5 0 8 7 8 15 0 8 -6 15 -14 15 -8 0 -16 7 -20 15 -7 19 -26 20 -26 1z"
       id="path34" />
    <path
       d="M1060 1225 c0 -8 9 -15 20 -15 11 0 20 7 20 15 0 8 -9 15 -20 15 -11 0 -20 -7 -20 -15z"
       id="path38" />
    <path
       d="M1041 824 c-24 -31 -26 -44 -8 -44 11 0 47 49 47 64 0 14 -20 4 -39 -20z"
       id="path40" />
    <path
       d="M1705 1826 c-15 -22 -14 -28 7 -80 13 -31 28 -56 34 -56 11 0 54 87 54 109 0 13 -49 51 -66 51 -7 0 -21 -11 -29 -24z"
       id="path42" />
    <path
       d="M1430 764 c0 -12 34 -64 42 -64 10 0 10 1 -3 39 -6 17 -17 31 -25 31 -8 0 -14 -3 -14 -6z"
       id="path44" />
    <path
       d="M1680 2697 c0 -20 28 -42 99 -77 35 -17 82 -49 105 -69 73 -67 106 -84 106 -57 0 21 -98 102 -172 143 -35 20 -74 44 -87 54 -28 22 -51 25 -51 6z"
       id="path46" />
    <path
       d="M2002 2448 c6 -18 28 -21 28 -4 0 9 -7 16 -16 16 -9 0 -14 -5 -12 -12z"
       id="path48" />
    <path
       d="M2050 2411 c0 -5 7 -14 15 -21 8 -6 17 -22 21 -33 4 -12 22 -39 40 -60 19 -20 34 -43 34 -50 0 -8 17 -40 38 -73 20 -32 45 -77 55 -99 33 -78 74 -264 69 -312 -2 -15 3 -23 13 -23 14 0 23 46 16 90 -12 79 -41 194 -77 305 -17 53 -30 75 -52 90 -16 11 -40 39 -52 63 -47 87 -120 162 -120 123z"
       id="path50" />
    <path
       d="M2256 2253 c4 -16 19 -55 35 -88 15 -33 32 -72 38 -87 9 -25 41 -40 41 -20 0 22 -50 153 -71 185 -29 45 -52 50 -43 10z"
       id="path52" />
    <path
       d="M2360 1947 c0 -8 9 -22 21 -33 21 -19 21 -19 17 11 -3 30 -38 51 -38 22z"
       id="path54" />
    <path
       d="M2390 1850 c0 -34 18 -114 32 -146 6 -12 7 -50 4 -85 -7 -83 -7 -90 0 -179 5 -62 2 -85 -15 -129 -11 -30 -18 -57 -16 -61 6 -10 -23 -121 -35 -135 -5 -6 -13 -29 -19 -50 -5 -22 -14 -56 -19 -75 -5 -19 -18 -53 -29 -75 -11 -22 -23 -56 -27 -76 -4 -21 -18 -53 -31 -73 -14 -20 -25 -40 -25 -44 0 -4 -13 -23 -30 -42 -16 -19 -29 -40 -30 -46 0 -6 -31 -48 -70 -93 -38 -46 -70 -87 -70 -91 0 -4 -25 -33 -55 -65 -31 -32 -53 -60 -50 -63 10 -10 78 34 132 86 30 28 58 52 63 52 4 0 16 12 25 28 29 45 98 136 116 152 9 8 22 38 29 65 7 28 28 79 45 115 40 81 54 118 72 199 7 35 22 76 33 91 34 48 51 113 39 148 -8 23 -8 41 1 66 6 19 11 59 11 88 -2 309 -7 370 -36 415 -8 12 -15 29 -15 38 0 8 -7 15 -15 15 -10 0 -15 -10 -15 -30z"
       id="path56" />
    <path
       d="M216 1650 c-9 -50 -13 -96 -9 -103 4 -7 8 -55 8 -107 1 -176 39 -370 71 -370 17 0 12 43 -15 155 -14 56 -17 113 -17 293 1 248 -10 286 -38 132z"
       id="path58" />
    <path
       d="M2330 1661 c0 -31 16 -49 30 -35 13 13 0 64 -16 64 -9 0 -14 -11 -14 -29z"
       id="path60" />
    <path
       d="M2343 1580 c4 -16 3 -32 -2 -34 -5 -3 -14 -72 -21 -153 -6 -82 -19 -166 -28 -188 -8 -22 -19 -60 -23 -85 -18 -107 -32 -147 -84 -253 -69 -140 -72 -145 -116 -190 -19 -20 -42 -49 -50 -64 -8 -15 -25 -38 -39 -50 -30 -24 -67 -89 -58 -98 12 -12 73 28 120 79 26 28 48 55 48 60 0 5 12 25 28 45 31 42 102 149 102 156 0 3 9 24 19 48 10 23 31 68 45 100 16 37 30 93 36 150 6 51 15 108 20 127 5 19 12 78 14 130 3 52 12 119 20 149 15 59 6 101 -22 101 -11 0 -13 -8 -9 -30z"
       id="path62" />
    <path
       d="M290 1010 c0 -5 7 -10 15 -10 8 0 15 5 15 10 0 6 -7 10 -15 10 -8 0 -15 -4 -15 -10z"
       id="path64" />
    <path
       d="M310 970 c0 -24 31 -126 45 -144 8 -12 23 -32 32 -46 9 -14 27 -36 39 -50 12 -14 25 -36 29 -50 13 -42 95 -115 95 -84 0 3 -28 49 -63 102 -86 133 -127 201 -127 213 0 17 -30 69 -40 69 -6 0 -10 -4 -10 -10z"
       id="path66" />
    <path
       d="M390 633 c1 -17 89 -117 96 -110 10 9 -65 117 -81 117 -8 0 -15 -3 -15 -7z"
       id="path68" />
    <path
       d="M592 518 c6 -16 36 -34 44 -25 9 9 -15 37 -33 37 -8 0 -13 -5 -11 -12z"
       id="path70" />
    <path
       d="M520 471 c0 -13 29 -35 37 -28 7 8 -15 37 -28 37 -5 0 -9 -4 -9 -9z"
       id="path72" />
    <path
       d="M1720 325 c0 -8 5 -15 10 -15 6 0 10 7 10 15 0 8 -4 15 -10 15 -5 0 -10 -7 -10 -15z"
       id="path74" />
    <path
       d="M1583 268 c-39 -13 -63 -26 -63 -35 0 -17 43 -10 88 13 15 8 33 14 40 14 6 0 12 7 12 15 0 18 0 18 -77 -7z"
       id="path76" />
    <path
       d="M1800 265 c0 -8 5 -15 10 -15 6 0 10 7 10 15 0 8 -4 15 -10 15 -5 0 -10 -7 -10 -15z"
       id="path78" />
    <path
       d="M1450 225 c0 -8 5 -15 10 -15 6 0 10 7 10 15 0 8 -4 15 -10 15 -5 0 -10 -7 -10 -15z"
       id="path80" />
    <path
       d="M1190 215 c0 -8 5 -15 10 -15 6 0 10 7 10 15 0 8 -4 15 -10 15 -5 0 -10 -7 -10 -15z"
       id="path82" />
    <path
       d="M1390 215 c0 -8 5 -15 10 -15 6 0 10 7 10 15 0 8 -4 15 -10 15 -5 0 -10 -7 -10 -15z"
       id="path84" />
    <path
       d="M1270 205 c0 -10 11 -15 35 -15 24 0 35 5 35 15 0 10 -11 15 -35 15 -24 0 -35 -5 -35 -15z"
       id="path86" />
    <path
       d="M1570 175 c-7 -9 -10 -18 -7 -21 10 -11 37 5 37 21 0 19 -14 19 -30 0z"
       id="path88" />
    <path
       d="M1140 125 c0 -10 20 -13 75 -13 51 0 75 4 75 12 0 8 -24 12 -75 13 -55 0 -75 -3 -75 -12z"
       id="path90" />
    <path
       d="M1330 125 c0 -9 9 -15 25 -15 16 0 25 6 25 15 0 9 -9 15 -25 15 -16 0 -25 -6 -25 -15z"
       id="path92" />
  </g>
</svg>
